<?xml version="1.0" encoding="UTF-8"?>
<svg version="1.1" xmlns="http://www.w3.org/2000/svg" width="16" height="16">
<path d="M0 0 C-0.54882079 3.84174552 -2.18423822 5.42558923 -5 8 C-5.7425 8.7425 -6.485 9.485 -7.25 10.25 C-7.8275 10.8275 -8.405 11.405 -9 12 C-9.33 10.68 -9.66 9.36 -10 8 C-11.65 8 -13.3 8 -15 8 C-15.33 6.35 -15.66 4.7 -16 3 C-15.01 3 -14.02 3 -13 3 C-13 2.34 -13 1.68 -13 1 C-12.05125 1.020625 -11.1025 1.04125 -10.125 1.0625 C-6.51564914 0.99031298 -3.71903668 -0.09786939 0 0 Z M-7 3 C-7.66 3.66 -8.32 4.32 -9 5 C-8.01 5.33 -7.02 5.66 -6 6 C-5.67 5.01 -5.34 4.02 -5 3 C-5.66 3 -6.32 3 -7 3 Z " fill="#000000" transform="translate(16,3)"/>
</svg>
