<?xml version="1.0" encoding="UTF-8"?>
<svg version="1.1" xmlns="http://www.w3.org/2000/svg" width="16" height="16">
<path d="M0 0 C1.32 0.66 2.64 1.32 4 2 C4 2.99 4 3.98 4 5 C3.01 5.66 2.02 6.32 1 7 C0.67 6.34 0.34 5.68 0 5 C-2.58605332 4.5316735 -2.58605332 4.5316735 -5.5625 4.375 C-6.57441406 4.30023437 -7.58632812 4.22546875 -8.62890625 4.1484375 C-9.80259766 4.07496094 -9.80259766 4.07496094 -11 4 C-10.67 3.34 -10.34 2.68 -10 2 C-7.71484375 1.5859375 -7.71484375 1.5859375 -4.9375 1.375 C-4.01839844 1.30023438 -3.09929688 1.22546875 -2.15234375 1.1484375 C-1.44207031 1.09945313 -0.73179688 1.05046875 0 1 C0 0.67 0 0.34 0 0 Z " fill="#000000" transform="translate(11,1)"/>
<path d="M0 0 C0.99 0.33 1.98 0.66 3 1 C4.89212737 1.22179785 6.78884472 1.40614015 8.6875 1.5625 C9.68136719 1.64628906 10.67523438 1.73007813 11.69921875 1.81640625 C12.83810547 1.90728516 12.83810547 1.90728516 14 2 C13.67 2.66 13.34 3.32 13 4 C10.8203125 4.4140625 10.8203125 4.4140625 8.125 4.625 C6.79855469 4.73714844 6.79855469 4.73714844 5.4453125 4.8515625 C3.63287027 4.96158295 1.81577843 5 0 5 C-0.66 4.01 -1.32 3.02 -2 2 C-1.34 1.34 -0.68 0.68 0 0 Z " fill="#000000" transform="translate(2,9)"/>
</svg>
